<?xml version="1.0" encoding="iso-8859-1"?>
<!-- Generator: Adobe Illustrator 19.0.0, SVG Export Plug-In . SVG Version: 6.00 Build 0)  -->
<svg version="1.1" id="Layer_1" xmlns="http://www.w3.org/2000/svg" xmlns:xlink="http://www.w3.org/1999/xlink" x="0px" y="0px"
	 viewBox="0 0 512.016 512.016" style="enable-background:new 0 0 512.016 512.016;" xml:space="preserve">
<rect x="28.336" y="458.866" transform="matrix(-0.7071 -0.7072 0.7072 -0.7071 -272.3947 836.9259)" style="fill:#C49270;" width="17.633" height="32.035"/>
<g>
	
		<rect x="187.276" y="216.898" transform="matrix(-0.7071 -0.7071 0.7071 -0.7071 204.3449 536.0716)" style="fill:#666666;" width="51.841" height="17.633"/>
	
		<rect x="272.562" y="131.601" transform="matrix(-0.7071 -0.7071 0.7071 -0.7071 410.2511 450.7662)" style="fill:#666666;" width="51.841" height="17.633"/>
	
		<rect x="216.563" y="187.616" transform="matrix(-0.7071 -0.7071 0.7071 -0.7071 275.0479 506.7914)" style="fill:#666666;" width="51.841" height="17.632"/>
	
		<rect x="238.188" y="165.974" transform="matrix(-0.7071 -0.7071 0.7071 -0.7071 327.2653 485.138)" style="fill:#666666;" width="51.841" height="17.633"/>
	
		<rect x="324.756" y="79.407" transform="matrix(-0.7071 -0.7071 0.7071 -0.7071 536.2596 398.5725)" style="fill:#666666;" width="51.841" height="17.633"/>
	
		<rect x="369.309" y="34.852" transform="matrix(-0.7071 -0.7071 0.7071 -0.7071 643.8205 354.0164)" style="fill:#666666;" width="51.841" height="17.633"/>
	
		<rect x="388.411" y="15.746" transform="matrix(-0.7071 -0.7071 0.7071 -0.7071 689.9403 334.9072)" style="fill:#666666;" width="51.841" height="17.632"/>
</g>
<g>
	<path style="fill:#F7B239;" d="M191.371,259.231l61.422,4.843l0.012,56.579c-25.321,25.321-37.758,60.776-33.82,96.371
		c3.033,27.378-4.232,53.381-22.582,71.732c-37.323,37.323-106.328,28.824-154.137-18.985s-56.308-116.814-18.997-154.137
		c18.35-18.35,44.353-25.615,71.743-22.594C130.595,296.977,166.05,284.552,191.371,259.231z"/>
	
		<rect x="455.012" y="14.624" transform="matrix(-0.7071 0.7071 -0.7071 -0.7071 844.082 -249.9437)" style="fill:#F7B239;" width="37.588" height="70.438"/>
</g>
<polygon style="fill:#C49270;" points="431.628,18.962 491.945,81.512 252.805,320.653 191.371,259.231 219.043,231.558 
	248.326,202.276 269.967,180.634 304.329,146.261 356.523,94.079 401.076,49.514 420.178,30.423 "/>
<g>
	
		<rect x="38.397" y="416.391" transform="matrix(-0.7071 -0.7071 0.7071 -0.7071 -152.4604 787.2631)" style="fill:#666666;" width="96.84" height="17.633"/>
	
		<rect x="68.946" y="385.843" transform="matrix(-0.7071 -0.7071 0.7071 -0.7071 -78.7096 756.7172)" style="fill:#666666;" width="96.84" height="17.633"/>
	
		<rect x="90.581" y="364.202" transform="matrix(-0.7071 -0.7071 0.7071 -0.7071 -26.4744 735.0717)" style="fill:#666666;" width="96.84" height="17.633"/>
</g>
<g>
</g>
<g>
</g>
<g>
</g>
<g>
</g>
<g>
</g>
<g>
</g>
<g>
</g>
<g>
</g>
<g>
</g>
<g>
</g>
<g>
</g>
<g>
</g>
<g>
</g>
<g>
</g>
<g>
</g>
</svg>
