<?xml version="1.0" encoding="iso-8859-1"?>
<!-- Generator: Adobe Illustrator 19.0.0, SVG Export Plug-In . SVG Version: 6.00 Build 0)  -->
<svg version="1.1" id="Layer_1" xmlns="http://www.w3.org/2000/svg" xmlns:xlink="http://www.w3.org/1999/xlink" x="0px" y="0px"
    viewBox="0 0 511.984 511.984" style="enable-background:new 0 0 511.984 511.984;" xml:space="preserve">
    <g>
        <path style="fill:#424953;" d="M21.343,319.99c-5.89,0-10.671-4.766-10.671-10.656v-63.998c0-5.891,4.781-10.671,10.671-10.671
		c5.891,0,10.656,4.78,10.656,10.671v63.998C31.999,315.224,27.233,319.99,21.343,319.99z" />
        <path style="fill:#424953;" d="M490.656,319.99c-5.904,0-10.67-4.766-10.67-10.656v-63.998c0-5.891,4.766-10.671,10.67-10.671
		c5.875,0,10.656,4.78,10.656,10.671v63.998C501.312,315.224,496.531,319.99,490.656,319.99z" />
    </g>
    <g>
        <path style="fill:#F6BB42;" d="M490.656,298.662h-42.67c-5.891,0-10.672,4.781-10.672,10.672v191.994
		c0,5.891,4.781,10.656,10.672,10.656h42.67c5.875,0,10.656-4.766,10.656-10.656V309.334
		C501.312,303.443,496.531,298.662,490.656,298.662z" />
        <path style="fill:#F6BB42;" d="M63.998,298.662H21.343c-5.89,0-10.671,4.781-10.671,10.672v191.994
		c0,5.891,4.781,10.656,10.671,10.656h42.655c5.89,0,10.671-4.766,10.671-10.656V309.334
		C74.669,303.443,69.888,298.662,63.998,298.662z" />
    </g>
    <g>
        <path style="fill:#ED5564;" d="M127.996,405.332H21.343c-5.89,0-10.671-4.781-10.671-10.672s4.781-10.672,10.671-10.672h106.653
		c5.891,0,10.671,4.781,10.671,10.672S133.887,405.332,127.996,405.332z" />
        <path style="fill:#ED5564;" d="M490.656,405.332H383.988c-5.891,0-10.672-4.781-10.672-10.672s4.781-10.672,10.672-10.672h106.668
		c5.875,0,10.656,4.781,10.656,10.672S496.531,405.332,490.656,405.332z" />
    </g>
    <g>
        <path style="fill:#424953;" d="M255.992,42.67c-5.89,0-10.671-4.766-10.671-10.671V10.671C245.321,4.78,250.102,0,255.992,0
		c5.891,0,10.672,4.78,10.672,10.671v21.328C266.664,37.904,261.883,42.67,255.992,42.67z" />
        <path style="fill:#424953;" d="M415.988,213.337c-5.891,0-10.672-4.781-10.672-10.671v-10.672c0-5.891,4.781-10.656,10.672-10.656
		c5.889,0,10.67,4.766,10.67,10.656v10.672C426.658,208.555,421.877,213.337,415.988,213.337z" />
        <path style="fill:#424953;" d="M95.997,213.337c-5.891,0-10.656-4.781-10.656-10.671v-10.672c0-5.891,4.766-10.656,10.656-10.656
		s10.671,4.766,10.671,10.656v10.672C106.668,208.555,101.887,213.337,95.997,213.337z" />
    </g>
    <g>
        <path style="fill:#F6BB42;" d="M415.988,191.994c-23.516,0-42.672,19.14-42.672,42.671c0,5.89,4.781,10.671,10.672,10.671h63.998
		c5.891,0,10.672-4.781,10.672-10.671C458.658,211.134,439.502,191.994,415.988,191.994z" />
        <path style="fill:#F6BB42;" d="M95.997,191.994c-23.515,0-42.655,19.14-42.655,42.671c0,5.89,4.766,10.671,10.656,10.671h63.998
		c5.891,0,10.671-4.781,10.671-10.671C138.667,211.134,119.512,191.994,95.997,191.994z" />
        <path style="fill:#F6BB42;" d="M363.785,97.966c-10.436-15.156-24.842-29.483-42.857-42.593
		c-30.203-21.952-60.045-32.937-61.295-33.39c-2.344-0.859-4.938-0.859-7.281,0c-1.25,0.453-31.093,11.438-61.295,33.39
		c-18.015,13.109-32.421,27.437-42.858,42.593c-13.406,19.499-20.203,40.373-20.203,62.029c0,33.812,13.5,68.467,37.046,95.075
		c11.843,13.375,25.468,23.968,40.53,31.468c16.125,8.047,33.093,12.124,50.42,12.124c17.328,0,34.295-4.077,50.42-12.124
		c15.062-7.5,28.688-18.093,40.531-31.468c23.545-26.608,37.045-61.264,37.045-95.075
		C383.988,138.339,377.191,117.465,363.785,97.966z" />
    </g>
    <path style="fill:#ED5564;" d="M383.988,255.992H127.996c-5.891,0-10.671,4.781-10.671,10.672v234.664
	c0,5.891,4.781,10.656,10.671,10.656h255.992c5.891,0,10.672-4.766,10.672-10.656V266.664
	C394.66,260.773,389.879,255.992,383.988,255.992z" />
    <g>
        <path style="fill:#FFCE54;" d="M373.035,213.337H138.949c3.047,7.344,6.719,14.484,10.938,21.328h212.211
		C366.316,227.821,369.988,220.68,373.035,213.337z" />
        <path style="fill:#FFCE54;" d="M255.992,319.99c-41.17,0-74.669,33.499-74.669,74.67v117.324h149.339V394.66
		C330.662,353.489,297.162,319.99,255.992,319.99z" />
    </g>
    <path style="fill:#424953;" d="M277.32,426.659h-42.655c-5.906,0-10.672,4.78-10.672,10.671v74.654h63.997V437.33
	C287.99,431.439,283.226,426.659,277.32,426.659z" />
    <g>
        <path style="fill:#FFCE54;" d="M373.316,234.665v266.663c0,5.891,4.781,10.656,10.672,10.656h63.998
		c5.891,0,10.672-4.766,10.672-10.656V234.665H373.316z" />
        <path style="fill:#FFCE54;" d="M53.342,234.665v266.663c0,5.891,4.766,10.656,10.656,10.656h63.998
		c5.891,0,10.671-4.766,10.671-10.656V234.665H53.342z" />
    </g>
    <g>
        <rect x="53.342" y="298.662" style="fill:#5D9CEC;" width="85.33" height="85.33" />
        <rect x="373.312" y="298.662" style="fill:#5D9CEC;" width="85.34" height="85.33" />
    </g>
    <g></g>
    <g></g>
    <g></g>
    <g></g>
    <g></g>
    <g></g>
    <g></g>
    <g></g>
    <g></g>
    <g></g>
    <g></g>
    <g></g>
    <g></g>
    <g></g>
    <g></g>
</svg>